# 3ds Max Wavefront OBJ Exporter v0.97b - (c)2007 guruware
# File Created: 10.05.2019 04:26:44

mtllib tree1.mtl

#
# object Line001
#

v  0.0000 0.3292 4.6216
v  0.0000 59.2924 1.9328
v  -3.6155 59.2704 -0.1541
v  -3.8579 0.3091 2.3946
v  -3.6155 59.2265 -4.3281
v  -3.8579 0.2689 -2.0592
v  0.0000 59.2045 -6.4150
v  0.0000 0.2488 -4.2861
v  3.6155 59.2265 -4.3280
v  3.8579 0.2689 -2.0592
v  3.6155 59.2704 -0.1541
v  3.8579 0.3091 2.3946
v  0.0000 108.9638 -0.4625
v  -3.1195 108.9616 -2.2640
v  -3.1191 108.9573 -5.8662
v  0.0000 108.9551 -7.6670
v  3.1191 108.9573 -5.8662
v  3.1195 108.9616 -2.2640
# 18 vertices

vn -0.0000 -0.5890 0.8082
vn -0.0000 0.0468 0.9989
vn -0.8661 0.0275 0.4990
vn -0.6879 -0.5984 0.4106
vn -0.8657 -0.0113 -0.5004
vn -0.6869 -0.6176 -0.3830
vn -0.0000 -0.0306 -0.9995
vn 0.0000 -0.6272 -0.7789
vn 0.8657 -0.0113 -0.5004
vn 0.6869 -0.6176 -0.3830
vn 0.8661 0.0275 0.4990
vn 0.6879 -0.5984 0.4106
vn -0.0000 0.0482 0.9988
vn -0.8706 0.0295 0.4911
vn -0.8611 -0.0071 -0.5084
vn 0.0000 -0.0252 -0.9997
vn 0.8611 -0.0071 -0.5084
vn 0.8706 0.0295 0.4911
# 18 vertex normals

o Line001
g Line001
usemtl wire_145028177
s 1
f 1//1 2//2 3//3 4//4 
s 2
f 4//4 3//3 5//5 6//6 
s 1
f 6//6 5//5 7//7 8//8 
s 2
f 8//8 7//7 9//9 10//10 
s 1
f 10//10 9//9 11//11 12//12 
s 2
f 12//12 11//11 2//2 1//1 
s 1
f 2//2 13//13 14//14 3//3 
s 2
f 3//3 14//14 15//15 5//5 
s 1
f 5//5 15//15 16//16 7//7 
s 2
f 7//7 16//16 17//17 9//9 
s 1
f 9//9 17//17 18//18 11//11 
s 2
f 11//11 18//18 13//13 2//2 
s 4
f 4//4 6//6 8//8 10//10 12//12 1//1 
# 13 polygons

#
# object Sphere001
#

v  4.7555 388.2588 5.1855
v  0.0655 341.6821 -20.0635
v  -9.5731 341.6821 -17.4809
v  -16.6290 341.6821 -10.4249
v  -19.2076 341.6821 -0.7694
v  -16.5315 341.6821 9.2536
v  -9.2355 341.6821 17.2970
v  0.7085 341.6821 21.1360
v  10.5069 341.6821 19.2106
v  17.4031 341.6821 11.4974
v  19.6803 341.6821 0.6024
v  16.8576 341.6821 -10.0236
v  9.7082 341.6821 -17.4640
v  0.0966 246.7472 -34.2911
v  -16.6612 246.7472 -29.6906
v  -32.0303 246.7472 -16.3371
v  -39.6075 246.7472 1.4739
v  -32.0303 246.7472 17.0520
v  -16.6612 246.7472 28.1411
v  0.0655 246.7472 32.6028
v  16.7601 246.7472 28.1295
v  29.0124 246.7472 15.7926
v  36.0880 246.7472 -10.3574
v  30.7316 246.7472 -21.8880
v  17.2708 246.7472 -30.3573
v  0.0655 160.7347 -39.3408
v  -19.2117 160.7347 -34.1754
v  -33.3236 160.7347 -20.0635
v  -38.4889 160.7347 -0.7863
v  -33.3236 160.7347 18.4909
v  -19.3682 160.7347 34.7692
v  -0.3797 160.7347 42.2870
v  19.1883 160.7347 34.8157
v  33.4546 160.7347 18.4909
v  38.6200 160.7347 -0.7863
v  33.4547 160.7347 -20.0635
v  19.3428 160.7347 -34.1754
v  0.0655 110.8514 -34.1754
v  -16.6290 110.8514 -29.7021
v  -28.8503 110.8514 -17.4809
v  -33.3236 110.8514 -0.7863
v  -28.8503 110.8514 15.9082
v  -16.6291 110.8514 28.1295
v  0.0655 110.8514 32.6028
v  16.7601 110.8514 28.1295
v  28.9813 110.8514 15.9083
v  33.4546 110.8514 -0.7863
v  28.9814 110.8514 -17.4809
v  16.7601 110.8514 -29.7021
v  0.0655 92.6556 -20.0635
v  -9.5731 92.6556 -17.4809
v  -16.6290 92.6556 -10.4249
v  -19.2117 92.6556 -0.7863
v  -16.6291 92.6556 8.8523
v  -9.5731 92.6556 15.9082
v  0.0655 92.6556 18.4909
v  9.7041 92.6556 15.9082
v  16.7601 92.6556 8.8523
v  19.3427 92.6556 -0.7863
v  16.7601 92.6556 -10.4249
v  9.7041 92.6556 -17.4809
v  0.0655 87.4903 -0.7863
# 62 vertices

vn 0.0770 0.9934 0.0848
vn -0.0049 0.3093 -0.9510
vn -0.4748 0.3195 -0.8200
vn -0.8157 0.3270 -0.4771
vn -0.9437 0.3307 -0.0092
vn -0.8438 0.2905 0.4513
vn -0.5530 0.2461 0.7960
vn -0.0892 0.2221 0.9709
vn 0.4801 0.2075 0.8523
vn 0.8726 0.2074 0.4422
vn 0.9710 0.2381 -0.0230
vn 0.8356 0.2716 -0.4776
vn 0.4795 0.2890 -0.8286
vn -0.0211 0.1028 -0.9945
vn -0.4698 0.1029 -0.8768
vn -0.8075 0.1009 -0.5812
vn -0.9949 0.0962 0.0307
vn -0.7637 0.0979 0.6380
vn -0.4273 0.1089 0.8975
vn 0.0005 0.1158 0.9933
vn 0.5009 0.0971 0.8601
vn 0.8634 0.0935 0.4958
vn 0.9894 0.0976 -0.1072
vn 0.7448 0.0980 -0.6601
vn 0.3821 0.1017 -0.9185
vn -0.0000 -0.0220 -0.9998
vn -0.4999 -0.0213 -0.8658
vn -0.8643 -0.0338 -0.5018
vn -0.9983 -0.0576 -0.0022
vn -0.8834 -0.0406 0.4668
vn -0.5773 -0.0288 0.8160
vn -0.0074 -0.0385 0.9992
vn 0.5680 -0.0282 0.8225
vn 0.8819 -0.0212 0.4710
vn 0.9993 -0.0355 0.0091
vn 0.8666 -0.0427 -0.4971
vn 0.4997 -0.0260 -0.8658
vn 0.0000 -0.3574 -0.9339
vn -0.4670 -0.3574 -0.8088
vn -0.8088 -0.3574 -0.4670
vn -0.9339 -0.3574 -0.0000
vn -0.8088 -0.3574 0.4670
vn -0.4649 -0.3756 0.8017
vn 0.0008 -0.3992 0.9169
vn 0.4656 -0.3746 0.8018
vn 0.8088 -0.3574 0.4670
vn 0.9339 -0.3574 0.0000
vn 0.8088 -0.3574 -0.4670
vn 0.4670 -0.3574 -0.8088
vn 0.0000 -0.8088 -0.5881
vn -0.2940 -0.8088 -0.5093
vn -0.5093 -0.8088 -0.2940
vn -0.5881 -0.8088 -0.0000
vn -0.5093 -0.8088 0.2940
vn -0.2940 -0.8088 0.5093
vn -0.0000 -0.8088 0.5881
vn 0.2940 -0.8088 0.5093
vn 0.5093 -0.8088 0.2940
vn 0.5881 -0.8088 0.0000
vn 0.5093 -0.8088 -0.2940
vn 0.2940 -0.8088 -0.5093
vn 0.0000 -1.0000 -0.0000
# 62 vertex normals

vt 0.0000 1.0000 0.0000
vt 0.0000 0.8333 0.0000
vt 0.0833 0.8333 0.0000
vt 0.0833 1.0000 0.0000
vt 0.1667 0.8333 0.0000
vt 0.1667 1.0000 0.0000
vt 0.2500 0.8333 0.0000
vt 0.2500 1.0000 0.0000
vt 0.3333 0.8333 0.0000
vt 0.3333 1.0000 0.0000
vt 0.4167 0.8333 0.0000
vt 0.4167 1.0000 0.0000
vt 0.5000 0.8333 0.0000
vt 0.5000 1.0000 0.0000
vt 0.5833 0.8333 0.0000
vt 0.5833 1.0000 0.0000
vt 0.6667 0.8333 0.0000
vt 0.6667 1.0000 0.0000
vt 0.7500 0.8333 0.0000
vt 0.7500 1.0000 0.0000
vt 0.8333 0.8333 0.0000
vt 0.8333 1.0000 0.0000
vt 0.9167 0.8333 0.0000
vt 0.9167 1.0000 0.0000
vt 1.0000 0.8333 0.0000
vt 0.0000 0.6667 0.0000
vt 0.0833 0.6667 0.0000
vt 0.1667 0.6667 0.0000
vt 0.2500 0.6667 0.0000
vt 0.3333 0.6667 0.0000
vt 0.4167 0.6667 0.0000
vt 0.5000 0.6667 0.0000
vt 0.5833 0.6667 0.0000
vt 0.6667 0.6667 0.0000
vt 0.7500 0.6667 0.0000
vt 0.8333 0.6667 0.0000
vt 0.9167 0.6667 0.0000
vt 1.0000 0.6667 0.0000
vt 0.0000 0.5000 0.0000
vt 0.0833 0.5000 0.0000
vt 0.1667 0.5000 0.0000
vt 0.2500 0.5000 0.0000
vt 0.3333 0.5000 0.0000
vt 0.4167 0.5000 0.0000
vt 0.5000 0.5000 0.0000
vt 0.5833 0.5000 0.0000
vt 0.6667 0.5000 0.0000
vt 0.7500 0.5000 0.0000
vt 0.8333 0.5000 0.0000
vt 0.9167 0.5000 0.0000
vt 1.0000 0.5000 0.0000
vt 0.0000 0.3333 0.0000
vt 0.0833 0.3333 0.0000
vt 0.1667 0.3333 0.0000
vt 0.2500 0.3333 0.0000
vt 0.3333 0.3333 0.0000
vt 0.4167 0.3333 0.0000
vt 0.5000 0.3333 0.0000
vt 0.5833 0.3333 0.0000
vt 0.6667 0.3333 0.0000
vt 0.7500 0.3333 0.0000
vt 0.8333 0.3333 0.0000
vt 0.9167 0.3333 0.0000
vt 1.0000 0.3333 0.0000
vt 0.0000 0.1667 0.0000
vt 0.0833 0.1667 0.0000
vt 0.1667 0.1667 0.0000
vt 0.2500 0.1667 0.0000
vt 0.3333 0.1667 0.0000
vt 0.4167 0.1667 0.0000
vt 0.5000 0.1667 0.0000
vt 0.5833 0.1667 0.0000
vt 0.6667 0.1667 0.0000
vt 0.7500 0.1667 0.0000
vt 0.8333 0.1667 0.0000
vt 0.9167 0.1667 0.0000
vt 1.0000 0.1667 0.0000
vt 0.0000 0.0000 0.0000
vt 0.0833 0.0000 0.0000
vt 0.1667 0.0000 0.0000
vt 0.2500 0.0000 0.0000
vt 0.3333 0.0000 0.0000
vt 0.4167 0.0000 0.0000
vt 0.5000 0.0000 0.0000
vt 0.5833 0.0000 0.0000
vt 0.6667 0.0000 0.0000
vt 0.7500 0.0000 0.0000
vt 0.8333 0.0000 0.0000
vt 0.9167 0.0000 0.0000
# 89 texture coords

o Sphere001
g Sphere001
usemtl wire_154215229
s 1
f 19/1/19 20/2/20 21/3/21 
f 19/4/19 21/3/21 22/5/22 
f 19/6/19 22/5/22 23/7/23 
f 19/8/19 23/7/23 24/9/24 
f 19/10/19 24/9/24 25/11/25 
f 19/12/19 25/11/25 26/13/26 
f 19/14/19 26/13/26 27/15/27 
f 19/16/19 27/15/27 28/17/28 
f 19/18/19 28/17/28 29/19/29 
f 19/20/19 29/19/29 30/21/30 
f 19/22/19 30/21/30 31/23/31 
f 19/24/19 31/23/31 20/25/20 
f 20/2/20 32/26/32 33/27/33 21/3/21 
f 21/3/21 33/27/33 34/28/34 22/5/22 
f 22/5/22 34/28/34 35/29/35 23/7/23 
f 23/7/23 35/29/35 36/30/36 24/9/24 
f 24/9/24 36/30/36 37/31/37 25/11/25 
f 25/11/25 37/31/37 38/32/38 26/13/26 
f 26/13/26 38/32/38 39/33/39 27/15/27 
f 27/15/27 39/33/39 40/34/40 28/17/28 
f 28/17/28 40/34/40 41/35/41 29/19/29 
f 29/19/29 41/35/41 42/36/42 30/21/30 
f 30/21/30 42/36/42 43/37/43 31/23/31 
f 31/23/31 43/37/43 32/38/32 20/25/20 
f 32/26/32 44/39/44 45/40/45 33/27/33 
f 33/27/33 45/40/45 46/41/46 34/28/34 
f 34/28/34 46/41/46 47/42/47 35/29/35 
f 35/29/35 47/42/47 48/43/48 36/30/36 
f 36/30/36 48/43/48 49/44/49 37/31/37 
f 37/31/37 49/44/49 50/45/50 38/32/38 
f 38/32/38 50/45/50 51/46/51 39/33/39 
f 39/33/39 51/46/51 52/47/52 40/34/40 
f 40/34/40 52/47/52 53/48/53 41/35/41 
f 41/35/41 53/48/53 54/49/54 42/36/42 
f 42/36/42 54/49/54 55/50/55 43/37/43 
f 43/37/43 55/50/55 44/51/44 32/38/32 
f 44/39/44 56/52/56 57/53/57 45/40/45 
f 45/40/45 57/53/57 58/54/58 46/41/46 
f 46/41/46 58/54/58 59/55/59 47/42/47 
f 47/42/47 59/55/59 60/56/60 48/43/48 
f 48/43/48 60/56/60 61/57/61 49/44/49 
f 49/44/49 61/57/61 62/58/62 50/45/50 
f 50/45/50 62/58/62 63/59/63 51/46/51 
f 51/46/51 63/59/63 64/60/64 52/47/52 
f 52/47/52 64/60/64 65/61/65 53/48/53 
f 53/48/53 65/61/65 66/62/66 54/49/54 
f 54/49/54 66/62/66 67/63/67 55/50/55 
f 55/50/55 67/63/67 56/64/56 44/51/44 
f 56/52/56 68/65/68 69/66/69 57/53/57 
f 57/53/57 69/66/69 70/67/70 58/54/58 
f 58/54/58 70/67/70 71/68/71 59/55/59 
f 59/55/59 71/68/71 72/69/72 60/56/60 
f 60/56/60 72/69/72 73/70/73 61/57/61 
f 61/57/61 73/70/73 74/71/74 62/58/62 
f 62/58/62 74/71/74 75/72/75 63/59/63 
f 63/59/63 75/72/75 76/73/76 64/60/64 
f 64/60/64 76/73/76 77/74/77 65/61/65 
f 65/61/65 77/74/77 78/75/78 66/62/66 
f 66/62/66 78/75/78 79/76/79 67/63/67 
f 67/63/67 79/76/79 68/77/68 56/64/56 
f 80/78/80 69/66/69 68/65/68 
f 80/79/80 70/67/70 69/66/69 
f 80/80/80 71/68/71 70/67/70 
f 80/81/80 72/69/72 71/68/71 
f 80/82/80 73/70/73 72/69/72 
f 80/83/80 74/71/74 73/70/73 
f 80/84/80 75/72/75 74/71/74 
f 80/85/80 76/73/76 75/72/75 
f 80/86/80 77/74/77 76/73/76 
f 80/87/80 78/75/78 77/74/77 
f 80/88/80 79/76/79 78/75/78 
f 80/89/80 68/77/68 79/76/79 
# 48 polygons - 24 triangles

