# 3ds Max Wavefront OBJ Exporter v0.97b - (c)2007 guruware
# File Created: 10.05.2019 09:18:27

mtllib roadStraight.mtl

#
# object road
#

v  -99.0223 0.0000 51.8306
v  -99.0223 0.0000 -48.1694
v  139.9181 0.0000 -48.1694
v  139.9181 0.0000 51.8306
v  139.9181 1.2976 -30.7661
v  -99.0223 1.2976 -30.7661
v  -99.0223 1.2976 34.4272
v  139.9181 1.2976 34.4272
v  139.9181 1.2976 51.8306
v  -99.0223 1.2976 51.8306
v  139.9181 1.2976 -48.1694
v  139.9181 1.2976 -33.0285
v  139.9181 1.2976 36.6897
v  -99.0223 1.2976 -48.1694
v  -99.0223 1.2976 36.6897
v  -99.0223 1.2976 -33.0285
v  -99.0223 3.5685 -48.1694
v  139.9181 3.5685 -48.1694
v  -99.0223 3.5685 -33.0285
v  -99.0223 3.5685 -30.7661
v  139.9181 3.5685 -33.0285
v  139.9181 3.5685 -30.7661
v  139.9181 3.5685 51.8306
v  -99.0223 3.5685 51.8306
v  139.9181 3.5685 36.6897
v  139.9181 3.5685 34.4272
v  -99.0223 3.5685 36.6897
v  -99.0223 3.5685 34.4272
v  139.9181 4.2173 -33.0285
v  -99.0223 4.2173 -33.0285
v  139.9181 4.2173 -48.1694
v  -99.0223 4.2173 -48.1694
v  -99.0223 4.2173 36.6897
v  139.9181 4.2173 36.6897
v  -99.0223 4.2173 51.8306
v  139.9181 4.2173 51.8306
# 36 vertices

vn 0.0000 -1.0000 -0.0000
vn 0.0000 1.0000 -0.0000
vn 0.0000 0.0000 1.0000
vn 1.0000 0.0000 -0.0000
vn 0.0000 0.0000 -1.0000
vn -1.0000 0.0000 -0.0000
vn -0.0000 0.0000 1.0000
# 7 vertex normals

vt 1.0000 0.0000 0.0000
vt 1.0000 1.0000 0.0000
vt 0.0000 1.0000 0.0000
vt 0.0000 0.0000 0.0000
vt 1.0000 0.8260 0.0000
vt 0.0000 0.8260 0.0000
vt 0.0000 0.1740 0.0000
vt 1.0000 0.1740 0.0000
vt 0.8486 1.0000 0.0000
vt 0.1514 1.0000 0.0000
vt 0.1740 1.0000 0.0000
vt 0.8260 1.0000 0.0000
vt 0.0000 0.8486 0.0000
vt 1.0000 0.8486 0.0000
vt 1.0000 0.1514 0.0000
vt 0.0000 0.1514 0.0000
# 16 texture coords

o road
g road
usemtl wire_008008008
s 2
f 1/1/1 2/2/1 3/3/1 
f 3/3/1 4/4/1 1/1/1 
s 4
f 5/5/2 6/6/2 7/7/2 
f 7/7/2 8/8/2 5/5/2 
s 8
f 1/4/3 4/1/3 9/2/3 
f 9/2/3 10/3/3 1/4/3 
s 16
f 4/4/4 3/1/4 11/2/4 
f 4/4/4 11/2/4 12/9/4 
f 4/4/4 12/9/4 13/10/4 
f 4/4/4 13/10/4 9/3/4 
s 32
f 3/4/5 2/1/5 14/2/5 
f 14/2/5 11/3/5 3/4/5 
s 64
f 2/4/6 1/1/6 10/2/6 
f 2/4/6 10/2/6 15/9/6 
f 2/4/6 15/9/6 16/10/6 
f 2/4/6 16/10/6 14/3/6 
s 16
f 8/11/4 13/10/4 12/9/4 
f 12/9/4 5/12/4 8/11/4 
s 64
f 6/11/4 16/10/6 15/9/6 
f 15/9/6 7/12/4 6/11/4 
s off
f 11/2/5 14/3/5 17/3/5 
f 17/3/5 18/2/5 11/2/5 
f 14/3/6 16/13/6 19/13/6 
f 19/13/6 17/3/6 14/3/6 
f 16/13/6 6/6/6 20/6/6 
f 20/6/6 19/13/6 16/13/6 
f 5/5/4 12/14/4 21/14/4 
f 21/14/4 22/5/4 5/5/4 
f 12/14/4 11/2/4 18/2/4 
f 18/2/4 21/14/4 12/14/4 
f 10/4/3 9/1/3 23/1/3 
f 23/1/3 24/4/3 10/4/3 
f 9/1/4 13/15/4 25/15/4 
f 25/15/4 23/1/4 9/1/4 
f 13/15/4 8/8/4 26/8/4 
f 26/8/4 25/15/4 13/15/4 
f 7/7/6 15/16/6 27/16/6 
f 27/16/6 28/7/6 7/7/6 
f 15/16/6 10/4/6 24/4/6 
f 24/4/6 27/16/6 15/16/6 
f 19/13/7 21/14/7 29/14/7 
f 29/14/7 30/13/7 19/13/7 
f 21/14/4 18/2/4 31/2/4 
f 31/2/4 29/14/4 21/14/4 
f 18/2/5 17/3/5 32/3/5 
f 32/3/5 31/2/5 18/2/5 
f 17/3/6 19/13/6 30/13/6 
f 30/13/6 32/3/6 17/3/6 
f 25/15/5 27/16/5 33/16/5 
f 33/16/5 34/15/5 25/15/5 
f 27/16/6 24/4/6 35/4/6 
f 35/4/6 33/16/6 27/16/6 
f 24/4/3 23/1/3 36/1/3 
f 36/1/3 35/4/3 24/4/3 
f 23/1/4 25/15/4 34/15/4 
f 34/15/4 36/1/4 23/1/4 
# 56 faces

#
# object borrder
#

v  139.9154 3.5685 -33.0285
v  -99.0223 3.5685 -33.0285
v  -99.0223 3.5685 -30.7661
v  139.9154 3.5685 -30.7661
v  -99.0223 3.5685 36.6897
v  139.9154 3.5685 36.6897
v  139.9154 3.5685 34.4272
v  -99.0223 3.5685 34.4272
v  -99.0223 1.2976 -30.7661
v  139.9154 1.2976 -30.7661
v  139.9154 1.2976 34.4272
v  -99.0223 1.2976 34.4272
# 12 vertices

vn 0.0000 1.0000 -0.0000
vn 0.0000 0.0000 1.0000
vn 0.0000 0.0000 -1.0000
# 3 vertex normals

vt 1.0000 0.8486 0.0000
vt 0.0000 0.8486 0.0000
vt 0.0000 0.8260 0.0000
vt 1.0000 0.8260 0.0000
vt 0.0000 0.1514 0.0000
vt 1.0000 0.1514 0.0000
vt 1.0000 0.1740 0.0000
vt 0.0000 0.1740 0.0000
# 8 texture coords

o borrder
g borrder
usemtl wire_086086086
s 4
f 37/17/8 38/18/8 39/19/8 
f 39/19/8 40/20/8 37/17/8 
f 41/21/8 42/22/8 43/23/8 
f 43/23/8 44/24/8 41/21/8 
s off
f 45/19/9 46/20/9 40/20/9 
f 40/20/9 39/19/9 45/19/9 
f 47/23/10 48/24/10 44/24/10 
f 44/24/10 43/23/10 47/23/10 
# 8 faces

#
# object trot
#

v  139.9171 4.2173 -48.1694
v  -99.0223 4.2173 -48.1694
v  -99.0223 4.2173 -33.0285
v  139.9171 4.2173 -33.0285
v  -99.0223 4.2173 51.8306
v  139.9171 4.2173 51.8306
v  139.9171 4.2173 36.6897
v  -99.0223 4.2173 36.6897
# 8 vertices

vn 0.0000 1.0000 -0.0000
# 1 vertex normals

vt 1.0000 1.0000 0.0000
vt 0.0000 1.0000 0.0000
vt 0.0000 0.8486 0.0000
vt 1.0000 0.8486 0.0000
vt 0.0000 0.0000 0.0000
vt 1.0000 0.0000 0.0000
vt 1.0000 0.1514 0.0000
vt 0.0000 0.1514 0.0000
# 8 texture coords

o trot
g trot
usemtl wire_115115115
s 4
f 49/25/11 50/26/11 51/27/11 
f 51/27/11 52/28/11 49/25/11 
f 53/29/11 54/30/11 55/31/11 
f 55/31/11 56/32/11 53/29/11 
# 4 faces

#
# object white
#

v  -79.5625 1.2135 0.6513
v  -79.5625 1.2135 -0.7824
v  -59.4906 1.2135 -0.7824
v  -59.4906 1.2135 0.6513
v  -79.5625 1.3876 0.6513
v  -59.4906 1.3876 0.6513
v  -59.4906 1.3876 -0.7824
v  -79.5625 1.3876 -0.7824
v  -19.5111 1.2135 0.6513
v  -19.5111 1.2135 -0.7824
v  0.5608 1.2135 -0.7824
v  0.5608 1.2135 0.6513
v  -19.5111 1.3876 0.6513
v  0.5608 1.3876 0.6513
v  0.5608 1.3876 -0.7824
v  -19.5111 1.3876 -0.7824
v  40.4247 1.2135 0.6513
v  40.4247 1.2135 -0.7824
v  60.4966 1.2135 -0.7824
v  60.4966 1.2135 0.6513
v  40.4247 1.3876 0.6513
v  60.4966 1.3876 0.6513
v  60.4966 1.3876 -0.7824
v  40.4247 1.3876 -0.7824
v  100.5248 1.2135 0.6513
v  100.5248 1.2135 -0.7824
v  120.5967 1.2135 -0.7824
v  120.5967 1.2135 0.6513
v  100.5248 1.3876 0.6513
v  120.5967 1.3876 0.6513
v  120.5967 1.3876 -0.7824
v  100.5248 1.3876 -0.7824
# 32 vertices

vn 0.0000 -1.0000 -0.0000
vn 0.0000 1.0000 -0.0000
vn 0.0000 0.0000 1.0000
vn 1.0000 0.0000 -0.0000
vn 0.0000 0.0000 -1.0000
vn -1.0000 0.0000 -0.0000
# 6 vertex normals

vt 1.0000 0.0000 0.0000
vt 1.0000 1.0000 0.0000
vt 0.0000 1.0000 0.0000
vt 0.0000 0.0000 0.0000
# 4 texture coords

o white
g white
usemtl wire_205205205
s 2
f 57/33/12 58/34/12 59/35/12 
f 59/35/12 60/36/12 57/33/12 
s 4
f 61/36/13 62/33/13 63/34/13 
f 63/34/13 64/35/13 61/36/13 
s 8
f 57/36/14 60/33/14 62/34/14 
f 62/34/14 61/35/14 57/36/14 
s 16
f 60/36/15 59/33/15 63/34/15 
f 63/34/15 62/35/15 60/36/15 
s 32
f 59/36/16 58/33/16 64/34/16 
f 64/34/16 63/35/16 59/36/16 
s 64
f 58/36/17 57/33/17 61/34/17 
f 61/34/17 64/35/17 58/36/17 
s 2
f 65/33/12 66/34/12 67/35/12 
f 67/35/12 68/36/12 65/33/12 
s 4
f 69/36/13 70/33/13 71/34/13 
f 71/34/13 72/35/13 69/36/13 
s 8
f 65/36/14 68/33/14 70/34/14 
f 70/34/14 69/35/14 65/36/14 
s 16
f 68/36/15 67/33/15 71/34/15 
f 71/34/15 70/35/15 68/36/15 
s 32
f 67/36/16 66/33/16 72/34/16 
f 72/34/16 71/35/16 67/36/16 
s 64
f 66/36/17 65/33/17 69/34/17 
f 69/34/17 72/35/17 66/36/17 
s 2
f 73/33/12 74/34/12 75/35/12 
f 75/35/12 76/36/12 73/33/12 
s 4
f 77/36/13 78/33/13 79/34/13 
f 79/34/13 80/35/13 77/36/13 
s 8
f 73/36/14 76/33/14 78/34/14 
f 78/34/14 77/35/14 73/36/14 
s 16
f 76/36/15 75/33/15 79/34/15 
f 79/34/15 78/35/15 76/36/15 
s 32
f 75/36/16 74/33/16 80/34/16 
f 80/34/16 79/35/16 75/36/16 
s 64
f 74/36/17 73/33/17 77/34/17 
f 77/34/17 80/35/17 74/36/17 
s 2
f 81/33/12 82/34/12 83/35/12 
f 83/35/12 84/36/12 81/33/12 
s 4
f 85/36/13 86/33/13 87/34/13 
f 87/34/13 88/35/13 85/36/13 
s 8
f 81/36/14 84/33/14 86/34/14 
f 86/34/14 85/35/14 81/36/14 
s 16
f 84/36/15 83/33/15 87/34/15 
f 87/34/15 86/35/15 84/36/15 
s 32
f 83/36/16 82/33/16 88/34/16 
f 88/34/16 87/35/16 83/36/16 
s 64
f 82/36/17 81/33/17 85/34/17 
f 85/34/17 88/35/17 82/36/17 
# 48 faces

