# 3ds Max Wavefront OBJ Exporter v0.97b - (c)2007 guruware
# File Created: 10.05.2019 09:13:48

mtllib roadTurn.mtl

#
# object road
#

v  85.1940 -0.0000 18.7452
v  5.3802 -0.0000 84.9044
v  -30.8592 -0.0000 58.2204
v  18.3788 -0.0000 -32.4169
v  19.2704 1.2980 73.3905
v  71.3037 1.2980 30.2591
v  9.8097 1.2980 -16.6430
v  -22.2902 1.2980 42.4465
v  5.3801 1.2980 84.9044
v  -30.8592 1.2980 58.2204
v  44.2192 -0.0000 213.3714
v  144.2325 -0.0000 213.3578
v  144.2325 1.2980 213.3578
v  129.0896 1.2980 213.3598
v  59.3621 1.2980 213.3693
v  44.2192 1.2980 213.3714
v  18.3788 1.2980 -32.4169
v  85.1940 1.2980 18.7452
v  -159.8810 -0.0000 -58.8752
v  -159.8810 -0.0000 41.1248
v  -159.8810 1.2980 41.1248
v  -159.8810 1.2980 25.9839
v  -159.8810 1.2980 -43.7343
v  -159.8810 1.2980 -58.8752
v  44.2229 -0.0000 167.8583
v  144.2085 -0.0000 160.4337
v  34.9199 -0.0000 125.0708
v  130.8697 -0.0000 89.8102
v  -102.7382 -0.0000 -58.8752
v  -102.7382 -0.0000 41.1248
v  -52.0513 -0.0000 -56.1985
v  -68.2202 -0.0000 43.0481
v  126.8268 1.2980 213.3602
v  126.8077 1.2980 161.7258
v  61.6237 1.2980 166.5662
v  61.6248 1.2980 213.3690
v  114.1712 1.2980 95.9467
v  51.6184 1.2980 118.9342
v  -159.8810 1.2980 23.7215
v  -102.7382 1.2980 23.7215
v  -102.7382 1.2980 -41.4718
v  -159.8810 1.2980 -41.4718
v  -65.4063 1.2980 25.7759
v  -54.8652 1.2980 -38.9263
v  44.2229 1.2980 167.8583
v  34.9199 1.2980 125.0708
v  -102.7382 1.2980 41.1248
v  -68.2202 1.2980 43.0481
v  -102.7382 1.2980 -58.8752
v  -52.0513 1.2980 -56.1985
v  144.2085 1.2980 160.4337
v  130.8697 1.2980 89.8102
v  144.2085 3.5691 160.4337
v  144.2325 3.5691 213.3578
v  130.8697 3.5691 89.8102
v  85.1940 3.5691 18.7452
v  18.3788 3.5691 -32.4169
v  -52.0513 3.5691 -56.1985
v  -102.7382 3.5691 -58.8752
v  -159.8810 3.5691 -58.8752
v  -159.8810 3.5691 -43.7343
v  -159.8810 3.5691 -41.4718
v  -102.7382 3.5691 -41.4718
v  -54.8652 3.5691 -38.9263
v  9.8097 3.5691 -16.6430
v  71.3037 3.5691 30.2591
v  114.1712 3.5691 95.9467
v  126.8077 3.5691 161.7258
v  126.8268 3.5691 213.3602
v  129.0896 3.5691 213.3598
v  -102.7382 3.5691 41.1248
v  -159.8810 3.5691 41.1248
v  -68.2202 3.5691 43.0481
v  -30.8592 3.5691 58.2204
v  5.3801 3.5691 84.9044
v  34.9199 3.5691 125.0708
v  44.2229 3.5691 167.8583
v  44.2192 3.5691 213.3714
v  59.3621 3.5691 213.3693
v  61.6248 3.5691 213.3690
v  61.6237 3.5691 166.5662
v  51.6184 3.5691 118.9342
v  19.2704 3.5691 73.3905
v  -22.2902 3.5691 42.4465
v  -65.4063 3.5691 25.7759
v  -102.7382 3.5691 23.7215
v  -159.8810 3.5691 23.7215
v  -159.8810 3.5691 25.9839
v  10.9237 3.5691 -18.6936
v  73.1095 3.5691 28.7623
v  73.1095 4.2180 28.7623
v  10.9237 4.2180 -18.6936
v  116.3420 3.5691 95.1490
v  116.3420 4.2180 95.1490
v  129.0698 3.5691 161.5578
v  129.0698 4.2180 161.5578
v  129.0896 4.2180 213.3598
v  144.2325 4.2180 213.3578
v  144.2085 4.2180 160.4337
v  130.8697 4.2180 89.8102
v  85.1940 4.2180 18.7452
v  18.3788 4.2180 -32.4169
v  -52.0513 4.2180 -56.1985
v  -102.7382 4.2180 -58.8752
v  -159.8810 4.2180 -58.8752
v  -159.8810 4.2180 -43.7343
v  -102.7382 3.5691 -43.7343
v  -102.7382 4.2180 -43.7343
v  -54.4994 3.5691 -41.1717
v  -54.4994 4.2180 -41.1717
v  17.4647 3.5691 74.8873
v  -23.4042 3.5691 44.4971
v  -23.4042 4.2180 44.4971
v  17.4647 4.2180 74.8873
v  -65.7721 3.5691 28.0213
v  -65.7721 4.2180 28.0213
v  -102.7382 3.5691 25.9839
v  -102.7382 4.2180 25.9839
v  -159.8810 4.2180 25.9839
v  -159.8810 4.2180 41.1248
v  -102.7382 4.2180 41.1248
v  -68.2202 4.2180 43.0481
v  -30.8592 4.2180 58.2204
v  5.3801 4.2180 84.9044
v  34.9199 4.2180 125.0708
v  44.2229 4.2180 167.8583
v  44.2192 4.2180 213.3714
v  59.3621 4.2180 213.3693
v  59.3616 3.5691 166.7342
v  59.3616 4.2180 166.7342
v  49.4476 3.5691 119.7320
v  49.4476 4.2180 119.7320
# 132 vertices

vn 0.0000 -1.0000 -0.0000
vn 0.0000 1.0000 -0.0000
vn -0.7073 -0.0000 0.7069
vn -0.4884 -0.0000 0.8726
vn 0.0001 0.0000 1.0000
vn 0.0001 -0.0000 1.0000
vn 0.4702 -0.0000 -0.8825
vn 0.7356 -0.0000 -0.6774
vn -1.0000 0.0000 -0.0000
vn -1.0000 0.0000 -0.0001
vn -0.9943 0.0000 0.1068
vn -0.9114 0.0000 0.4115
vn -0.9114 -0.0000 0.4115
vn 0.0000 0.0000 1.0000
vn -0.0278 0.0000 0.9996
vn -0.2189 0.0000 0.9757
vn -0.2189 -0.0000 0.9757
vn 0.0000 0.0000 -1.0000
vn 0.0264 0.0000 -0.9997
vn 0.1881 0.0000 -0.9822
vn 0.1881 -0.0000 -0.9822
vn 1.0000 0.0000 -0.0005
vn 0.9956 0.0000 -0.0934
vn 0.9290 0.0000 -0.3700
vn 0.9290 -0.0000 -0.3700
vn 1.0000 0.0000 -0.0000
vn 0.9826 0.0000 -0.1856
vn 0.8412 0.0000 -0.5407
vn 0.6080 0.0000 -0.7940
vn 0.3199 0.0000 -0.9474
vn 0.0527 0.0000 -0.9986
vn -0.0531 0.0000 0.9986
vn -0.3258 0.0000 0.9455
vn -0.6064 0.0000 0.7951
vn -0.8374 0.0000 0.5465
vn -0.9820 0.0000 0.1887
vn -1.0000 0.0000 0.0004
vn -0.0556 0.0000 0.9985
vn -0.3763 0.0000 0.9265
vn -0.5929 0.0000 0.8053
vn -0.8056 0.0000 0.5925
vn -0.9772 0.0000 0.2125
vn 0.9786 0.0000 -0.2056
vn 0.8153 0.0000 -0.5791
vn 0.5972 0.0000 -0.8021
vn 0.3606 0.0000 -0.9327
vn 0.0549 0.0000 -0.9985
vn -0.6067 0.0000 0.7950
vn -0.8380 0.0000 0.5457
vn -0.9821 0.0000 0.1882
vn -0.0530 0.0000 0.9986
vn -0.3249 0.0000 0.9457
vn 0.5967 0.0000 -0.8025
vn 0.3624 0.0000 -0.9320
vn 0.0550 0.0000 -0.9985
vn 0.9785 0.0000 -0.2064
vn 0.8142 0.0000 -0.5806
# 57 vertex normals

vt 0.4286 1.0000 0.0000
vt 0.4286 0.0000 0.0000
vt 0.5714 0.0000 0.0000
vt 0.5714 1.0000 0.0000
vt 0.5714 0.1740 0.0000
vt 0.5714 0.8260 0.0000
vt 0.4286 0.8260 0.0000
vt 0.4286 0.1740 0.0000
vt 0.0000 0.0000 0.0000
vt 1.0000 0.0000 0.0000
vt 1.0000 1.0000 0.0000
vt 0.8486 1.0000 0.0000
vt 0.1514 1.0000 0.0000
vt 0.0000 1.0000 0.0000
vt 0.1429 0.0000 0.0000
vt 0.1429 1.0000 0.0000
vt 0.2857 0.0000 0.0000
vt 0.2857 1.0000 0.0000
vt 0.8571 1.0000 0.0000
vt 0.8571 0.0000 0.0000
vt 0.7143 1.0000 0.0000
vt 0.7143 0.0000 0.0000
vt 1.0000 0.8260 0.0000
vt 0.8571 0.8260 0.0000
vt 0.8571 0.1740 0.0000
vt 1.0000 0.1740 0.0000
vt 0.7143 0.8260 0.0000
vt 0.7143 0.1740 0.0000
vt 0.0000 0.1740 0.0000
vt 0.1429 0.1740 0.0000
vt 0.1429 0.8260 0.0000
vt 0.0000 0.8260 0.0000
vt 0.2857 0.1740 0.0000
vt 0.2857 0.8260 0.0000
vt 0.1740 1.0000 0.0000
vt 0.8260 1.0000 0.0000
vt 0.0000 0.8486 0.0000
vt 1.0000 0.8486 0.0000
vt 1.0000 0.1514 0.0000
vt 0.0000 0.1514 0.0000
vt 0.4286 0.8486 0.0000
vt 0.5714 0.8486 0.0000
vt 0.7143 0.8486 0.0000
vt 0.8571 0.8486 0.0000
vt 0.1429 0.8486 0.0000
vt 0.2857 0.8486 0.0000
vt 0.5714 0.1514 0.0000
vt 0.4286 0.1514 0.0000
vt 0.2857 0.1514 0.0000
vt 0.1429 0.1514 0.0000
vt 0.8571 0.1514 0.0000
vt 0.7143 0.1514 0.0000
# 52 texture coords

o road
g road
usemtl wire_008008008
s 2
f 1/1/1 2/2/1 3/3/1 
f 3/3/1 4/4/1 1/1/1 
s 4
f 5/5/2 6/6/2 7/7/2 
f 7/7/2 8/8/2 5/5/2 
s 8
f 2/3/3 9/4/3 10/1/4 
f 10/1/4 3/2/4 2/3/3 
s 16
f 11/9/5 12/10/5 13/11/6 
f 11/9/5 13/11/6 14/12/6 
f 11/9/5 14/12/6 15/13/5 
f 11/9/5 15/13/5 16/14/5 
s 32
f 4/3/7 17/4/7 18/1/8 
f 18/1/8 1/2/8 4/3/7 
s 64
f 19/9/9 20/10/9 21/11/9 
f 19/9/9 21/11/9 22/12/9 
f 19/9/9 22/12/9 23/13/9 
f 19/9/9 23/13/9 24/14/9 
s 2
f 12/14/1 11/9/1 25/15/1 
f 25/15/1 26/16/1 12/14/1 
f 26/16/1 25/15/1 27/17/1 
f 27/17/1 28/18/1 26/16/1 
f 28/18/1 27/17/1 2/2/1 
f 2/2/1 1/1/1 28/18/1 
f 20/10/1 19/11/1 29/19/1 
f 29/19/1 30/20/1 20/10/1 
f 30/20/1 29/19/1 31/21/1 
f 31/21/1 32/22/1 30/20/1 
f 32/22/1 31/21/1 4/4/1 
f 4/4/1 3/3/1 32/22/1 
s 4
f 33/23/2 34/24/2 35/25/2 
f 35/25/2 36/26/2 33/23/2 
f 34/24/2 37/27/2 38/28/2 
f 38/28/2 35/25/2 34/24/2 
f 38/28/2 37/27/2 6/6/2 
f 6/6/2 5/5/2 38/28/2 
f 39/29/2 40/30/2 41/31/2 
f 41/31/2 42/32/2 39/29/2 
f 41/31/2 40/30/2 43/33/2 
f 43/33/2 44/34/2 41/31/2 
f 43/33/2 8/8/2 7/7/2 
f 7/7/2 44/34/2 43/33/2 
s 8
f 11/10/10 16/11/10 45/19/11 
f 45/19/11 25/20/11 11/10/10 
f 25/20/11 45/19/11 46/21/12 
f 46/21/12 27/22/13 25/20/11 
f 27/22/13 46/21/12 9/4/3 
f 9/4/3 2/3/3 27/22/13 
f 21/14/14 20/9/14 30/15/15 
f 30/15/15 47/16/15 21/14/14 
f 47/16/15 30/15/15 32/17/16 
f 32/17/16 48/18/17 47/16/15 
f 48/18/17 32/17/16 3/2/4 
f 3/2/4 10/1/4 48/18/17 
s 32
f 19/10/18 24/11/18 49/19/19 
f 49/19/19 29/20/19 19/10/18 
f 29/20/19 49/19/19 50/21/20 
f 50/21/20 31/22/21 29/20/19 
f 31/22/21 50/21/20 17/4/7 
f 17/4/7 4/3/7 31/22/21 
f 13/14/22 12/9/22 26/15/23 
f 26/15/23 51/16/23 13/14/22 
f 51/16/23 26/15/23 28/17/24 
f 28/17/24 52/18/25 51/16/23 
f 52/18/25 28/17/24 1/2/8 
f 1/2/8 18/1/8 52/18/25 
s 16
f 36/35/1 15/13/5 14/12/6 
f 14/12/6 33/36/2 36/35/1 
s 64
f 42/35/26 23/13/9 22/12/9 
f 22/12/9 39/36/26 42/35/26 
s off
f 13/11/22 51/19/22 53/19/22 
f 53/19/22 54/11/22 13/11/22 
f 51/19/27 52/21/27 55/21/27 
f 55/21/27 53/19/27 51/19/27 
f 52/21/28 18/4/28 56/4/28 
f 56/4/28 55/21/28 52/21/28 
f 18/4/29 17/1/29 57/1/29 
f 57/1/29 56/4/29 18/4/29 
f 17/1/30 50/18/30 58/18/30 
f 58/18/30 57/1/30 17/1/30 
f 50/18/31 49/16/31 59/16/31 
f 59/16/31 58/18/31 50/18/31 
f 49/16/18 24/14/18 60/14/18 
f 60/14/18 59/16/18 49/16/18 
f 24/14/9 23/37/9 61/37/9 
f 61/37/9 60/14/9 24/14/9 
f 23/37/9 42/32/9 62/32/9 
f 62/32/9 61/37/9 23/37/9 
f 42/32/14 41/31/14 63/31/14 
f 63/31/14 62/32/14 42/32/14 
f 41/31/32 44/34/32 64/34/32 
f 64/34/32 63/31/32 41/31/32 
f 44/34/33 7/7/33 65/7/33 
f 65/7/33 64/34/33 44/34/33 
f 7/7/34 6/6/34 66/6/34 
f 66/6/34 65/7/34 7/7/34 
f 6/6/35 37/27/35 67/27/35 
f 67/27/35 66/6/35 6/6/35 
f 37/27/36 34/24/36 68/24/36 
f 68/24/36 67/27/36 37/27/36 
f 34/24/37 33/23/37 69/23/37 
f 69/23/37 68/24/37 34/24/37 
f 33/23/5 14/38/5 70/38/5 
f 70/38/5 69/23/5 33/23/5 
f 14/38/5 13/11/5 54/11/5 
f 54/11/5 70/38/5 14/38/5 
f 21/9/14 47/15/14 71/15/14 
f 71/15/14 72/9/14 21/9/14 
f 47/15/38 48/17/38 73/17/38 
f 73/17/38 71/15/38 47/15/38 
f 48/17/39 10/2/39 74/2/39 
f 74/2/39 73/17/39 48/17/39 
f 10/2/40 9/3/40 75/3/40 
f 75/3/40 74/2/40 10/2/40 
f 9/3/41 46/22/41 76/22/41 
f 76/22/41 75/3/41 9/3/41 
f 46/22/42 45/20/42 77/20/42 
f 77/20/42 76/22/42 46/22/42 
f 45/20/10 16/10/10 78/10/10 
f 78/10/10 77/20/10 45/20/10 
f 16/10/5 15/39/5 79/39/5 
f 79/39/5 78/10/5 16/10/5 
f 15/39/5 36/26/5 80/26/5 
f 80/26/5 79/39/5 15/39/5 
f 36/26/26 35/25/26 81/25/26 
f 81/25/26 80/26/26 36/26/26 
f 35/25/43 38/28/43 82/28/43 
f 82/28/43 81/25/43 35/25/43 
f 38/28/44 5/5/44 83/5/44 
f 83/5/44 82/28/44 38/28/44 
f 5/5/45 8/8/45 84/8/45 
f 84/8/45 83/5/45 5/5/45 
f 8/8/46 43/33/46 85/33/46 
f 85/33/46 84/8/46 8/8/46 
f 43/33/47 40/30/47 86/30/47 
f 86/30/47 85/33/47 43/33/47 
f 40/30/18 39/29/18 87/29/18 
f 87/29/18 86/30/18 40/30/18 
f 39/29/9 22/40/9 88/40/9 
f 88/40/9 87/29/9 39/29/9 
f 22/40/9 21/9/9 72/9/9 
f 72/9/9 88/40/9 22/40/9 
f 89/41/48 90/42/48 91/42/48 
f 91/42/48 92/41/48 89/41/48 
f 90/42/49 93/43/49 94/43/49 
f 94/43/49 91/42/49 90/42/49 
f 93/43/50 95/44/50 96/44/50 
f 96/44/50 94/43/50 93/43/50 
f 95/44/37 70/38/37 97/38/37 
f 97/38/37 96/44/37 95/44/37 
f 70/38/5 54/11/5 98/11/5 
f 98/11/5 97/38/5 70/38/5 
f 54/11/22 53/19/22 99/19/22 
f 99/19/22 98/11/22 54/11/22 
f 53/19/27 55/21/27 100/21/27 
f 100/21/27 99/19/27 53/19/27 
f 55/21/28 56/4/28 101/4/28 
f 101/4/28 100/21/28 55/21/28 
f 56/4/29 57/1/29 102/1/29 
f 102/1/29 101/4/29 56/4/29 
f 57/1/30 58/18/30 103/18/30 
f 103/18/30 102/1/30 57/1/30 
f 58/18/31 59/16/31 104/16/31 
f 104/16/31 103/18/31 58/18/31 
f 59/16/18 60/14/18 105/14/18 
f 105/14/18 104/16/18 59/16/18 
f 60/14/9 61/37/9 106/37/9 
f 106/37/9 105/14/9 60/14/9 
f 61/37/14 107/45/14 108/45/14 
f 108/45/14 106/37/14 61/37/14 
f 107/45/51 109/46/51 110/46/51 
f 110/46/51 108/45/51 107/45/51 
f 109/46/52 89/41/52 92/41/52 
f 92/41/52 110/46/52 109/46/52 
f 111/47/53 112/48/53 113/48/53 
f 113/48/53 114/47/53 111/47/53 
f 112/48/54 115/49/54 116/49/54 
f 116/49/54 113/48/54 112/48/54 
f 115/49/55 117/50/55 118/50/55 
f 118/50/55 116/49/55 115/49/55 
f 117/50/18 88/40/18 119/40/18 
f 119/40/18 118/50/18 117/50/18 
f 88/40/9 72/9/9 120/9/9 
f 120/9/9 119/40/9 88/40/9 
f 72/9/14 71/15/14 121/15/14 
f 121/15/14 120/9/14 72/9/14 
f 71/15/38 73/17/38 122/17/38 
f 122/17/38 121/15/38 71/15/38 
f 73/17/39 74/2/39 123/2/39 
f 123/2/39 122/17/39 73/17/39 
f 74/2/40 75/3/40 124/3/40 
f 124/3/40 123/2/40 74/2/40 
f 75/3/41 76/22/41 125/22/41 
f 125/22/41 124/3/41 75/3/41 
f 76/22/42 77/20/42 126/20/42 
f 126/20/42 125/22/42 76/22/42 
f 77/20/10 78/10/10 127/10/10 
f 127/10/10 126/20/10 77/20/10 
f 78/10/5 79/39/5 128/39/5 
f 128/39/5 127/10/5 78/10/5 
f 79/39/26 129/51/26 130/51/26 
f 130/51/26 128/39/26 79/39/26 
f 129/51/56 131/52/56 132/52/56 
f 132/52/56 130/51/56 129/51/56 
f 131/52/57 111/47/57 114/47/57 
f 114/47/57 132/52/57 131/52/57 
# 204 faces

#
# object white001
#

v  -140.1350 1.2135 -10.0547
v  -140.1350 1.2135 -11.4884
v  -120.0631 1.2135 -11.4884
v  -120.0631 1.2135 -10.0547
v  -140.1350 1.3876 -10.0547
v  -120.0631 1.3876 -10.0547
v  -120.0631 1.3876 -11.4884
v  -140.1350 1.3876 -11.4884
v  -69.5761 1.2135 -7.6036
v  -69.2870 1.2135 -9.0078
v  -49.6274 1.2135 -4.9606
v  -49.9165 1.2135 -3.5563
v  -69.5761 1.3876 -7.6036
v  -49.9165 1.3876 -3.5563
v  -49.6274 1.3876 -4.9606
v  -69.2870 1.3876 -9.0078
v  -6.3043 1.2135 13.8084
v  -5.5512 1.2135 12.5884
v  11.5289 1.2135 23.1312
v  10.7759 1.2135 24.3512
v  -6.3043 1.3876 13.8084
v  10.7759 1.3876 24.3512
v  11.5289 1.3876 23.1312
v  -5.5512 1.3876 12.5884
v  48.9430 1.2135 54.9591
v  50.0607 1.2135 54.0612
v  62.6316 1.2135 69.7090
v  61.5139 1.2135 70.6070
v  48.9430 1.3876 54.9591
v  61.5139 1.3876 70.6070
v  62.6316 1.3876 69.7090
v  50.0607 1.3876 54.0612
v  83.1406 1.2135 109.5010
v  84.5356 1.2135 109.1699
v  89.1716 1.2135 128.6991
v  87.7766 1.2135 129.0302
v  83.1406 1.3876 109.5010
v  87.7766 1.3876 129.0302
v  89.1716 1.3876 128.6991
v  84.5356 1.3876 109.1699
v  91.3365 1.2135 172.2962
v  92.7702 1.2135 172.2914
v  92.8374 1.2135 192.3632
v  91.4037 1.2135 192.3680
v  91.3365 1.3876 172.2962
v  91.4037 1.3876 192.3680
v  92.8374 1.3876 192.3632
v  92.7702 1.3876 172.2914
# 48 vertices

vn 0.0000 -1.0000 -0.0000
vn 0.0000 1.0000 -0.0000
vn 0.0000 0.0000 1.0000
vn 1.0000 0.0000 -0.0000
vn 0.0000 0.0000 -1.0000
vn -1.0000 0.0000 -0.0000
vn -0.2016 0.0000 0.9795
vn 0.9795 0.0000 0.2016
vn 0.2016 0.0000 -0.9795
vn -0.9795 0.0000 -0.2016
vn -0.5252 0.0000 0.8509
vn 0.8509 0.0000 0.5252
vn 0.5252 0.0000 -0.8509
vn -0.8509 0.0000 -0.5253
vn -0.7796 0.0000 0.6263
vn 0.6263 0.0000 0.7796
vn 0.7796 0.0000 -0.6263
vn -0.6263 0.0000 -0.7796
vn -0.9730 0.0000 0.2310
vn 0.2310 0.0000 0.9730
vn 0.9730 0.0000 -0.2310
vn -0.2310 0.0000 -0.9730
vn -1.0000 0.0000 0.0033
vn 0.0034 0.0000 1.0000
vn 1.0000 0.0000 -0.0033
vn -0.0034 0.0000 -1.0000
# 26 vertex normals

vt 1.0000 0.0000 0.0000
vt 1.0000 1.0000 0.0000
vt 0.0000 1.0000 0.0000
vt 0.0000 0.0000 0.0000
# 4 texture coords

o white001
g white001
usemtl wire_255255255
s 2
f 133/53/58 134/54/58 135/55/58 
f 135/55/58 136/56/58 133/53/58 
s 4
f 137/56/59 138/53/59 139/54/59 
f 139/54/59 140/55/59 137/56/59 
s 8
f 133/56/60 136/53/60 138/54/60 
f 138/54/60 137/55/60 133/56/60 
s 16
f 136/56/61 135/53/61 139/54/61 
f 139/54/61 138/55/61 136/56/61 
s 32
f 135/56/62 134/53/62 140/54/62 
f 140/54/62 139/55/62 135/56/62 
s 64
f 134/56/63 133/53/63 137/54/63 
f 137/54/63 140/55/63 134/56/63 
s 2
f 141/53/58 142/54/58 143/55/58 
f 143/55/58 144/56/58 141/53/58 
s 4
f 145/56/59 146/53/59 147/54/59 
f 147/54/59 148/55/59 145/56/59 
s 8
f 141/56/64 144/53/64 146/54/64 
f 146/54/64 145/55/64 141/56/64 
s 16
f 144/56/65 143/53/65 147/54/65 
f 147/54/65 146/55/65 144/56/65 
s 32
f 143/56/66 142/53/66 148/54/66 
f 148/54/66 147/55/66 143/56/66 
s 64
f 142/56/67 141/53/67 145/54/67 
f 145/54/67 148/55/67 142/56/67 
s 2
f 149/53/58 150/54/58 151/55/58 
f 151/55/58 152/56/58 149/53/58 
s 4
f 153/56/59 154/53/59 155/54/59 
f 155/54/59 156/55/59 153/56/59 
s 8
f 149/56/68 152/53/68 154/54/68 
f 154/54/68 153/55/68 149/56/68 
s 16
f 152/56/69 151/53/69 155/54/69 
f 155/54/69 154/55/69 152/56/69 
s 32
f 151/56/70 150/53/70 156/54/70 
f 156/54/70 155/55/70 151/56/70 
s 64
f 150/56/71 149/53/71 153/54/71 
f 153/54/71 156/55/71 150/56/71 
s 2
f 157/53/58 158/54/58 159/55/58 
f 159/55/58 160/56/58 157/53/58 
s 4
f 161/56/59 162/53/59 163/54/59 
f 163/54/59 164/55/59 161/56/59 
s 8
f 157/56/72 160/53/72 162/54/72 
f 162/54/72 161/55/72 157/56/72 
s 16
f 160/56/73 159/53/73 163/54/73 
f 163/54/73 162/55/73 160/56/73 
s 32
f 159/56/74 158/53/74 164/54/74 
f 164/54/74 163/55/74 159/56/74 
s 64
f 158/56/75 157/53/75 161/54/75 
f 161/54/75 164/55/75 158/56/75 
s 2
f 165/53/58 166/54/58 167/55/58 
f 167/55/58 168/56/58 165/53/58 
s 4
f 169/56/59 170/53/59 171/54/59 
f 171/54/59 172/55/59 169/56/59 
s 8
f 165/56/76 168/53/76 170/54/76 
f 170/54/76 169/55/76 165/56/76 
s 16
f 168/56/77 167/53/77 171/54/77 
f 171/54/77 170/55/77 168/56/77 
s 32
f 167/56/78 166/53/78 172/54/78 
f 172/54/78 171/55/78 167/56/78 
s 64
f 166/56/79 165/53/79 169/54/79 
f 169/54/79 172/55/79 166/56/79 
s 2
f 173/53/58 174/54/58 175/55/58 
f 175/55/58 176/56/58 173/53/58 
s 4
f 177/56/59 178/53/59 179/54/59 
f 179/54/59 180/55/59 177/56/59 
s 8
f 173/56/80 176/53/80 178/54/80 
f 178/54/80 177/55/80 173/56/80 
s 16
f 176/56/81 175/53/81 179/54/81 
f 179/54/81 178/55/81 176/56/81 
s 32
f 175/56/82 174/53/82 180/54/82 
f 180/54/82 179/55/82 175/56/82 
s 64
f 174/56/83 173/53/83 177/54/83 
f 177/54/83 180/55/83 174/56/83 
# 72 faces

#
# object trot
#

v  73.1095 4.2180 28.7623
v  85.1940 4.2180 18.7452
v  18.3788 4.2180 -32.4169
v  10.9237 4.2180 -18.6936
v  -23.4042 4.2180 44.4971
v  -30.8592 4.2180 58.2204
v  5.3801 4.2180 84.9044
v  17.4647 4.2180 74.8873
v  144.2325 4.2180 213.3578
v  144.2085 4.2180 160.4337
v  129.0698 4.2180 161.5578
v  129.0896 4.2180 213.3598
v  44.2229 4.2180 167.8583
v  44.2192 4.2180 213.3714
v  59.3621 4.2180 213.3693
v  59.3616 4.2180 166.7342
v  130.8697 4.2180 89.8102
v  116.3420 4.2180 95.1490
v  34.9199 4.2180 125.0708
v  49.4476 4.2180 119.7320
v  -159.8810 4.2180 41.1248
v  -102.7382 4.2180 41.1248
v  -102.7382 4.2180 25.9839
v  -159.8810 4.2180 25.9839
v  -102.7382 4.2180 -58.8752
v  -159.8810 4.2180 -58.8752
v  -159.8810 4.2180 -43.7343
v  -102.7382 4.2180 -43.7343
v  -68.2202 4.2180 43.0481
v  -65.7721 4.2180 28.0213
v  -54.4994 4.2180 -41.1717
v  -52.0513 4.2180 -56.1985
# 32 vertices

vn 0.0000 1.0000 -0.0000
# 1 vertex normals

vt 0.5714 0.8486 0.0000
vt 0.5714 1.0000 0.0000
vt 0.4286 1.0000 0.0000
vt 0.4286 0.8486 0.0000
vt 0.4286 0.1514 0.0000
vt 0.4286 0.0000 0.0000
vt 0.5714 0.0000 0.0000
vt 0.5714 0.1514 0.0000
vt 1.0000 1.0000 0.0000
vt 0.8571 1.0000 0.0000
vt 0.8571 0.8486 0.0000
vt 1.0000 0.8486 0.0000
vt 0.8571 0.0000 0.0000
vt 1.0000 0.0000 0.0000
vt 1.0000 0.1514 0.0000
vt 0.8571 0.1514 0.0000
vt 0.7143 1.0000 0.0000
vt 0.7143 0.8486 0.0000
vt 0.7143 0.0000 0.0000
vt 0.7143 0.1514 0.0000
vt 0.0000 0.0000 0.0000
vt 0.1429 0.0000 0.0000
vt 0.1429 0.1514 0.0000
vt 0.0000 0.1514 0.0000
vt 0.1429 1.0000 0.0000
vt 0.0000 1.0000 0.0000
vt 0.0000 0.8486 0.0000
vt 0.1429 0.8486 0.0000
vt 0.2857 0.0000 0.0000
vt 0.2857 0.1514 0.0000
vt 0.2857 0.8486 0.0000
vt 0.2857 1.0000 0.0000
# 32 texture coords

o trot
g trot
usemtl wire_115115115
s 4
f 181/57/84 182/58/84 183/59/84 
f 183/59/84 184/60/84 181/57/84 
f 185/61/84 186/62/84 187/63/84 
f 187/63/84 188/64/84 185/61/84 
f 189/65/84 190/66/84 191/67/84 
f 191/67/84 192/68/84 189/65/84 
f 193/69/84 194/70/84 195/71/84 
f 195/71/84 196/72/84 193/69/84 
f 190/66/84 197/73/84 198/74/84 
f 198/74/84 191/67/84 190/66/84 
f 199/75/84 193/69/84 196/72/84 
f 196/72/84 200/76/84 199/75/84 
f 198/74/84 197/73/84 182/58/84 
f 182/58/84 181/57/84 198/74/84 
f 188/64/84 187/63/84 199/75/84 
f 199/75/84 200/76/84 188/64/84 
f 201/77/84 202/78/84 203/79/84 
f 203/79/84 204/80/84 201/77/84 
f 205/81/84 206/82/84 207/83/84 
f 207/83/84 208/84/84 205/81/84 
f 203/79/84 202/78/84 209/85/84 
f 209/85/84 210/86/84 203/79/84 
f 211/87/84 212/88/84 205/81/84 
f 205/81/84 208/84/84 211/87/84 
f 209/85/84 186/62/84 185/61/84 
f 185/61/84 210/86/84 209/85/84 
f 183/59/84 212/88/84 211/87/84 
f 211/87/84 184/60/84 183/59/84 
# 28 faces

#
# object border
#

v  73.1095 3.5691 28.7623
v  10.9237 3.5691 -18.6936
v  9.8097 3.5691 -16.6430
v  71.3037 3.5691 30.2591
v  -23.4042 3.5691 44.4971
v  17.4647 3.5691 74.8873
v  19.2704 3.5691 73.3905
v  -22.2902 3.5691 42.4465
v  129.0896 3.5691 213.3598
v  129.0698 3.5691 161.5578
v  126.8077 3.5691 161.7258
v  126.8268 3.5691 213.3602
v  59.3616 3.5691 166.7342
v  59.3621 3.5691 213.3693
v  61.6248 3.5691 213.3690
v  61.6237 3.5691 166.5662
v  116.3420 3.5691 95.1490
v  114.1712 3.5691 95.9467
v  49.4476 3.5691 119.7320
v  51.6184 3.5691 118.9342
v  -159.8810 3.5691 25.9839
v  -102.7382 3.5691 25.9839
v  -102.7382 3.5691 23.7215
v  -159.8810 3.5691 23.7215
v  -102.7382 3.5691 -43.7343
v  -159.8810 3.5691 -43.7343
v  -159.8810 3.5691 -41.4718
v  -102.7382 3.5691 -41.4718
v  -65.7721 3.5691 28.0213
v  -65.4063 3.5691 25.7759
v  -54.4994 3.5691 -41.1717
v  -54.8652 3.5691 -38.9263
# 32 vertices

vn 0.0000 1.0000 -0.0000
# 1 vertex normals

vt 0.5714 0.8486 0.0000
vt 0.4286 0.8486 0.0000
vt 0.4286 0.8260 0.0000
vt 0.5714 0.8260 0.0000
vt 0.4286 0.1514 0.0000
vt 0.5714 0.1514 0.0000
vt 0.5714 0.1740 0.0000
vt 0.4286 0.1740 0.0000
vt 1.0000 0.8486 0.0000
vt 0.8571 0.8486 0.0000
vt 0.8571 0.8260 0.0000
vt 1.0000 0.8260 0.0000
vt 0.8571 0.1514 0.0000
vt 1.0000 0.1514 0.0000
vt 1.0000 0.1740 0.0000
vt 0.8571 0.1740 0.0000
vt 0.7143 0.8486 0.0000
vt 0.7143 0.8260 0.0000
vt 0.7143 0.1514 0.0000
vt 0.7143 0.1740 0.0000
vt 0.0000 0.1514 0.0000
vt 0.1429 0.1514 0.0000
vt 0.1429 0.1740 0.0000
vt 0.0000 0.1740 0.0000
vt 0.1429 0.8486 0.0000
vt 0.0000 0.8486 0.0000
vt 0.0000 0.8260 0.0000
vt 0.1429 0.8260 0.0000
vt 0.2857 0.1514 0.0000
vt 0.2857 0.1740 0.0000
vt 0.2857 0.8486 0.0000
vt 0.2857 0.8260 0.0000
# 32 texture coords

o border
g border
usemtl wire_086086086
s 4
f 213/89/85 214/90/85 215/91/85 
f 215/91/85 216/92/85 213/89/85 
f 217/93/85 218/94/85 219/95/85 
f 219/95/85 220/96/85 217/93/85 
f 221/97/85 222/98/85 223/99/85 
f 223/99/85 224/100/85 221/97/85 
f 225/101/85 226/102/85 227/103/85 
f 227/103/85 228/104/85 225/101/85 
f 222/98/85 229/105/85 230/106/85 
f 230/106/85 223/99/85 222/98/85 
f 231/107/85 225/101/85 228/104/85 
f 228/104/85 232/108/85 231/107/85 
f 229/105/85 213/89/85 216/92/85 
f 216/92/85 230/106/85 229/105/85 
f 219/95/85 218/94/85 231/107/85 
f 231/107/85 232/108/85 219/95/85 
f 233/109/85 234/110/85 235/111/85 
f 235/111/85 236/112/85 233/109/85 
f 237/113/85 238/114/85 239/115/85 
f 239/115/85 240/116/85 237/113/85 
f 234/110/85 241/117/85 242/118/85 
f 242/118/85 235/111/85 234/110/85 
f 243/119/85 237/113/85 240/116/85 
f 240/116/85 244/120/85 243/119/85 
f 241/117/85 217/93/85 220/96/85 
f 220/96/85 242/118/85 241/117/85 
f 214/90/85 243/119/85 244/120/85 
f 244/120/85 215/91/85 214/90/85 
# 28 faces

